<?xml version="1.0" standalone="no"?>
<!DOCTYPE svg PUBLIC "-//W3C//DTD SVG 20010904//EN"
 "http://www.w3.org/TR/2001/REC-SVG-20010904/DTD/svg10.dtd">
<svg version="1.0" xmlns="http://www.w3.org/2000/svg"
 width="260.000000pt" height="260.000000pt" viewBox="0 0 260.000000 260.000000"
 preserveAspectRatio="xMidYMid meet">
<metadata>
Created by potrace 1.14, written by Peter Selinger 2001-2017
</metadata>
<g transform="translate(0.000000,260.000000) scale(0.100000,-0.100000)"
fill="#000000" stroke="none">
<path d="M1140 2490 c-25 -4 -58 -10 -75 -13 -232 -38 -459 -160 -645 -347
-170 -169 -270 -343 -330 -570 -31 -115 -39 -198 -35 -345 3 -122 6 -152 21
-215 3 -14 8 -36 11 -50 18 -99 97 -276 180 -403 60 -91 237 -269 328 -329
153 -101 333 -173 500 -202 80 -13 333 -14 405 -1 197 36 388 117 540 227 30
22 98 84 150 137 172 175 274 361 331 606 36 157 33 419 -7 565 -137 500 -508
842 -1014 935 -53 10 -309 13 -360 5z"/>
<path d="M2554 714 c1 -8 4 -15 7 -16 2 -2 3 -1 2 1 -2 2 2 9 7 16 7 8 5 12
-4 12 -8 0 -13 -6 -12 -13z"/>
<path d="M2582 668 c-7 -7 -12 -20 -12 -31 0 -12 -4 -16 -12 -11 -7 4 -10 3
-5 -1 12 -14 44 -13 44 1 0 7 -4 11 -9 8 -4 -3 -8 2 -8 11 0 9 4 14 8 11 5 -3
9 1 9 9 0 18 0 18 -15 3z"/>
</g>
</svg>
